<svg width="93" height="93" viewBox="0 0 93 93" fill="none" xmlns="http://www.w3.org/2000/svg">
<path d="M46.5 0C20.8217 0 0 20.8217 0 46.5C0 72.1783 20.77 93 46.5 93C72.1783 93 93 72.1783 93 46.5C93 20.8217 72.1783 0 46.5 0ZM46.5 82.6667C26.505 82.6667 10.3333 66.495 10.3333 46.5C10.3333 26.505 26.505 10.3333 46.5 10.3333C66.495 10.3333 82.6667 26.505 82.6667 46.5C82.6667 66.495 66.495 82.6667 46.5 82.6667Z" fill="white" fill-opacity="0.56"/>
<path d="M26.5247 60.5875V70.4115H36.3486L65.3227 41.4374L55.4987 31.6135L26.5247 60.5875ZM72.9199 33.8402C73.9416 32.8185 73.9416 31.1681 72.9199 30.1464L66.7897 24.0163C65.768 22.9946 64.1176 22.9946 63.0959 24.0163L58.3018 28.8104L68.1258 38.6343L72.9199 33.8402Z" fill="white" fill-opacity="0.56"/>
</svg>
